<svg id='Email_Open_48' width='48' height='48' viewBox='0 0 48 48' xmlns='http://www.w3.org/2000/svg' xmlns:xlink='http://www.w3.org/1999/xlink'><rect width='48' height='48' stroke='none' fill='#000000' opacity='0'/>


<g transform="matrix(0.69 0 0 0.69 24 24)" >
<g style="" >
<g transform="matrix(1 0 0 1 -10.55 -9.05)" id="Layer_1" >
<linearGradient id="SVGID_SVGID_1__1" gradientUnits="userSpaceOnUse" gradientTransform="matrix(1 0 0 1 0 0)" x1="21.5" y1="15.936" x2="21.5" y2="28.051">
<stop offset="0%" style="stop-color:rgb(109,199,255);stop-opacity: 1"/>
<stop offset="100%" style="stop-color:rgb(230,171,255);stop-opacity: 1"/>
</linearGradient>
<path style="stroke: none; stroke-width: 1; stroke-dasharray: none; stroke-linecap: butt; stroke-dashoffset: 0; stroke-linejoin: miter; stroke-miterlimit: 4; fill: url(#SVGID_SVGID_1__1); fill-rule: nonzero; opacity: 1;" transform=" translate(-21.45, -22.95)" d="M 24.8 28 L 18.1 28 C 17.5 28 16.900000000000002 27.5 16.900000000000002 26.8 L 16.900000000000002 19.1 C 16.900000000000002 18.5 17.400000000000002 17.900000000000002 18.1 17.900000000000002 L 24.8 17.900000000000002 C 25.400000000000002 17.900000000000002 26 18.400000000000002 26 19.1 L 26 26.8 C 26 27.5 25.5 28 24.8 28 z" stroke-linecap="round" />
</g>
<g transform="matrix(1 0 0 1 -16 20)" id="Layer_1" >
<linearGradient id="SVGID_SVGID_2__2" gradientUnits="userSpaceOnUse" gradientTransform="matrix(1 0 0 1 -16 -52)" x1="16" y1="7.936" x2="16" y2="53.919">
<stop offset="0%" style="stop-color:rgb(26,109,255);stop-opacity: 1"/>
<stop offset="100%" style="stop-color:rgb(200,34,255);stop-opacity: 1"/>
</linearGradient>
<rect style="stroke: none; stroke-width: 1; stroke-dasharray: none; stroke-linecap: butt; stroke-dashoffset: 0; stroke-linejoin: miter; stroke-miterlimit: 4; fill: url(#SVGID_SVGID_2__2); fill-rule: nonzero; opacity: 1;" x="-5" y="-1" rx="0" ry="0" width="10" height="2" />
</g>
<g transform="matrix(1 0 0 1 -17 16)" id="Layer_1" >
<linearGradient id="SVGID_SVGID_3__3" gradientUnits="userSpaceOnUse" gradientTransform="matrix(1 0 0 1 -15 -48)" x1="15" y1="7.936" x2="15" y2="53.919">
<stop offset="0%" style="stop-color:rgb(26,109,255);stop-opacity: 1"/>
<stop offset="100%" style="stop-color:rgb(200,34,255);stop-opacity: 1"/>
</linearGradient>
<rect style="stroke: none; stroke-width: 1; stroke-dasharray: none; stroke-linecap: butt; stroke-dashoffset: 0; stroke-linejoin: miter; stroke-miterlimit: 4; fill: url(#SVGID_SVGID_3__3); fill-rule: nonzero; opacity: 1;" x="-4" y="-1" rx="0" ry="0" width="8" height="2" />
</g>
<g transform="matrix(1 0 0 1 0 -0.01)" id="Layer_1" >
<linearGradient id="SVGID_SVGID_4__4" gradientUnits="userSpaceOnUse" gradientTransform="matrix(1 0 0 1 0 0)" x1="32" y1="7.936" x2="32" y2="53.919">
<stop offset="0%" style="stop-color:rgb(26,109,255);stop-opacity: 1"/>
<stop offset="100%" style="stop-color:rgb(200,34,255);stop-opacity: 1"/>
</linearGradient>
<path style="stroke: none; stroke-width: 1; stroke-dasharray: none; stroke-linecap: butt; stroke-dashoffset: 0; stroke-linejoin: miter; stroke-miterlimit: 4; fill: url(#SVGID_SVGID_4__4); fill-rule: nonzero; opacity: 1;" transform=" translate(-32, -31.99)" d="M 55.8 26.2 L 53 23 L 53 15 C 53 13.3 51.7 12 50 12 L 40.1 12 L 35.300000000000004 8.1 C 33.400000000000006 6.6 30.500000000000004 6.6 28.600000000000005 8.1 L 23.9 12 L 14 12 C 12.3 12 11 13.3 11 15 L 11 23.9 L 8.6 26.099999999999998 C 7.6 27 7 28.4 7 29.8 L 7 52 C 7 54.8 9.2 57 12 57 L 52 57 C 54.8 57 57 54.8 57 52 L 57 29.5 C 57 28.3 56.6 27.1 55.8 26.2 z M 53 26.1 L 54.3 27.6 C 54.3 27.6 54.3 27.6 54.3 27.6 L 53 28.4 L 53 26.1 z M 29.9 9.7 C 31.099999999999998 8.799999999999999 32.9 8.799999999999999 34.1 9.7 L 36.9 12 L 27 12 L 29.9 9.7 z M 13 15 C 13 14.4 13.5 14 14 14 L 50 14 C 50.6 14 51 14.5 51 15 L 51 29.6 L 33.6 40.8 C 32.6 41.4 31.3 41.4 30.400000000000002 40.8 L 13 29.7 L 13 15 z M 10 27.5 L 11 26.6 L 11 28.400000000000002 L 9.9 27.700000000000003 C 9.9 27.6 9.9 27.6 10 27.5 z M 55 52 C 55 53.7 53.7 55 52 55 L 12 55 C 10.3 55 9 53.7 9 52 L 9 29.8 C 9 29.7 9 29.6 9 29.6 L 29.2 42.5 C 30 43 31 43.3 31.9 43.3 C 32.8 43.3 33.8 43 34.6 42.5 L 55 29.5 C 55 29.5 55 29.5 55 29.5 L 55 52 z" stroke-linecap="round" />
</g>
<g transform="matrix(1 0 0 1 12 19)" id="Layer_1" >
<linearGradient id="SVGID_SVGID_5__5" gradientUnits="userSpaceOnUse" gradientTransform="matrix(1 0 0 1 -44 -51)" x1="44" y1="7.936" x2="44" y2="53.919">
<stop offset="0%" style="stop-color:rgb(26,109,255);stop-opacity: 1"/>
<stop offset="100%" style="stop-color:rgb(200,34,255);stop-opacity: 1"/>
</linearGradient>
<rect style="stroke: none; stroke-width: 1; stroke-dasharray: none; stroke-linecap: butt; stroke-dashoffset: 0; stroke-linejoin: miter; stroke-miterlimit: 4; fill: url(#SVGID_SVGID_5__5); fill-rule: nonzero; opacity: 1;" x="-1" y="-2" rx="0" ry="0" width="2" height="4" />
</g>
<g transform="matrix(1 0 0 1 16 19)" id="Layer_1" >
<linearGradient id="SVGID_SVGID_6__6" gradientUnits="userSpaceOnUse" gradientTransform="matrix(1 0 0 1 -48 -51)" x1="48" y1="7.936" x2="48" y2="53.919">
<stop offset="0%" style="stop-color:rgb(26,109,255);stop-opacity: 1"/>
<stop offset="100%" style="stop-color:rgb(200,34,255);stop-opacity: 1"/>
</linearGradient>
<rect style="stroke: none; stroke-width: 1; stroke-dasharray: none; stroke-linecap: butt; stroke-dashoffset: 0; stroke-linejoin: miter; stroke-miterlimit: 4; fill: url(#SVGID_SVGID_6__6); fill-rule: nonzero; opacity: 1;" x="-1" y="-2" rx="0" ry="0" width="2" height="4" />
</g>
<g transform="matrix(1 0 0 1 20 19)" id="Layer_1" >
<linearGradient id="SVGID_SVGID_7__7" gradientUnits="userSpaceOnUse" gradientTransform="matrix(1 0 0 1 -52 -51)" x1="52" y1="7.936" x2="52" y2="53.919">
<stop offset="0%" style="stop-color:rgb(26,109,255);stop-opacity: 1"/>
<stop offset="100%" style="stop-color:rgb(200,34,255);stop-opacity: 1"/>
</linearGradient>
<rect style="stroke: none; stroke-width: 1; stroke-dasharray: none; stroke-linecap: butt; stroke-dashoffset: 0; stroke-linejoin: miter; stroke-miterlimit: 4; fill: url(#SVGID_SVGID_7__7); fill-rule: nonzero; opacity: 1;" x="-1" y="-2" rx="0" ry="0" width="2" height="4" />
</g>
<g transform="matrix(1 0 0 1 8 19)" id="Layer_1" >
<linearGradient id="SVGID_SVGID_8__8" gradientUnits="userSpaceOnUse" gradientTransform="matrix(1 0 0 1 -40 -51)" x1="40" y1="7.936" x2="40" y2="53.919">
<stop offset="0%" style="stop-color:rgb(26,109,255);stop-opacity: 1"/>
<stop offset="100%" style="stop-color:rgb(200,34,255);stop-opacity: 1"/>
</linearGradient>
<rect style="stroke: none; stroke-width: 1; stroke-dasharray: none; stroke-linecap: butt; stroke-dashoffset: 0; stroke-linejoin: miter; stroke-miterlimit: 4; fill: url(#SVGID_SVGID_8__8); fill-rule: nonzero; opacity: 1;" x="-1" y="-2" rx="0" ry="0" width="2" height="4" />
</g>
<g transform="matrix(1 0 0 1 6.5 -13)" id="Layer_1" >
<linearGradient id="SVGID_SVGID_9__9" gradientUnits="userSpaceOnUse" gradientTransform="matrix(1 0 0 1 -38.5 -19)" x1="38.5" y1="7.936" x2="38.5" y2="53.919">
<stop offset="0%" style="stop-color:rgb(26,109,255);stop-opacity: 1"/>
<stop offset="100%" style="stop-color:rgb(200,34,255);stop-opacity: 1"/>
</linearGradient>
<rect style="stroke: none; stroke-width: 1; stroke-dasharray: none; stroke-linecap: butt; stroke-dashoffset: 0; stroke-linejoin: miter; stroke-miterlimit: 4; fill: url(#SVGID_SVGID_9__9); fill-rule: nonzero; opacity: 1;" x="-8.5" y="-1" rx="0" ry="0" width="17" height="2" />
</g>
<g transform="matrix(1 0 0 1 6.5 -9)" id="Layer_1" >
<linearGradient id="SVGID_SVGID_10__10" gradientUnits="userSpaceOnUse" gradientTransform="matrix(1 0 0 1 -38.5 -23)" x1="38.5" y1="7.936" x2="38.5" y2="53.919">
<stop offset="0%" style="stop-color:rgb(26,109,255);stop-opacity: 1"/>
<stop offset="100%" style="stop-color:rgb(200,34,255);stop-opacity: 1"/>
</linearGradient>
<rect style="stroke: none; stroke-width: 1; stroke-dasharray: none; stroke-linecap: butt; stroke-dashoffset: 0; stroke-linejoin: miter; stroke-miterlimit: 4; fill: url(#SVGID_SVGID_10__10); fill-rule: nonzero; opacity: 1;" x="-8.5" y="-1" rx="0" ry="0" width="17" height="2" />
</g>
<g transform="matrix(1 0 0 1 6.5 -5)" id="Layer_1" >
<linearGradient id="SVGID_SVGID_11__11" gradientUnits="userSpaceOnUse" gradientTransform="matrix(1 0 0 1 -38.5 -27)" x1="38.5" y1="7.936" x2="38.5" y2="53.919">
<stop offset="0%" style="stop-color:rgb(26,109,255);stop-opacity: 1"/>
<stop offset="100%" style="stop-color:rgb(200,34,255);stop-opacity: 1"/>
</linearGradient>
<rect style="stroke: none; stroke-width: 1; stroke-dasharray: none; stroke-linecap: butt; stroke-dashoffset: 0; stroke-linejoin: miter; stroke-miterlimit: 4; fill: url(#SVGID_SVGID_11__11); fill-rule: nonzero; opacity: 1;" x="-8.5" y="-1" rx="0" ry="0" width="17" height="2" />
</g>
<g transform="matrix(1 0 0 1 3 -1)" id="Layer_1" >
<linearGradient id="SVGID_SVGID_12__12" gradientUnits="userSpaceOnUse" gradientTransform="matrix(1 0 0 1 -35 -31)" x1="35" y1="7.936" x2="35" y2="53.919">
<stop offset="0%" style="stop-color:rgb(26,109,255);stop-opacity: 1"/>
<stop offset="100%" style="stop-color:rgb(200,34,255);stop-opacity: 1"/>
</linearGradient>
<rect style="stroke: none; stroke-width: 1; stroke-dasharray: none; stroke-linecap: butt; stroke-dashoffset: 0; stroke-linejoin: miter; stroke-miterlimit: 4; fill: url(#SVGID_SVGID_12__12); fill-rule: nonzero; opacity: 1;" x="-5" y="-1" rx="0" ry="0" width="10" height="2" />
</g>
</g>
</g>
</svg>