<svg id='Telegram_App_48' width='48' height='48' viewBox='0 0 48 48' xmlns='http://www.w3.org/2000/svg' xmlns:xlink='http://www.w3.org/1999/xlink'><rect width='48' height='48' stroke='none' fill='#000000' opacity='0'/>


<g transform="matrix(0.69 0 0 0.69 24 24)" >
<g style="" >
<g transform="matrix(1 0 0 1 -2.5 0.5)" >
<linearGradient id="SVGID_EEzBmxT86u8E~6vCqQtLma_1" gradientUnits="userSpaceOnUse" gradientTransform="matrix(1 0 0 1 0 0)" x1="29.5" y1="19.006" x2="29.5" y2="46">
<stop offset="0%" style="stop-color:rgb(109,199,255);stop-opacity: 1"/>
<stop offset="100%" style="stop-color:rgb(230,171,255);stop-opacity: 1"/>
</linearGradient>
<path style="stroke: none; stroke-width: 1; stroke-dasharray: none; stroke-linecap: butt; stroke-dashoffset: 0; stroke-linejoin: miter; stroke-miterlimit: 4; fill: url(#SVGID_EEzBmxT86u8E~6vCqQtLma_1); fill-rule: nonzero; opacity: 1;" transform=" translate(-29.5, -32.5)" d="M 22.007 35.25 L 39.022 25 L 27.011 37.5 L 37.546 45.775 C 39.433 46.605 40.12 44.876 40.12 44.876 L 44.945 20.374999999999996 C 44.945 20.374999999999996 45.027 19.749999999999996 44.99 19.624999999999996 C 44.646 18.456999999999997 42.762 19.299999999999997 42.763000000000005 19.300999999999995 L 15.206 30.188 C 15.206 30.188 13.902 30.637 14.004999999999999 31.465999999999998 C 14.107999999999999 32.296 15.171999999999999 32.675 15.171999999999999 32.675 L 22.009 35.25" stroke-linecap="round" />
</g>
<g transform="matrix(1 0 0 1 -2.5 0.5)" >
<linearGradient id="SVGID_EEzBmxT86u8E~6vCqQtLmb_2" gradientUnits="userSpaceOnUse" gradientTransform="matrix(1 0 0 1 0 0)" x1="29.5" y1="5.833" x2="29.5" y2="58.262">
<stop offset="0%" style="stop-color:rgb(26,109,255);stop-opacity: 1"/>
<stop offset="100%" style="stop-color:rgb(200,34,255);stop-opacity: 1"/>
</linearGradient>
<path style="stroke: none; stroke-width: 1; stroke-dasharray: none; stroke-linecap: butt; stroke-dashoffset: 0; stroke-linejoin: miter; stroke-miterlimit: 4; fill: url(#SVGID_EEzBmxT86u8E~6vCqQtLmb_2); fill-rule: nonzero; opacity: 1;" transform=" translate(-29.5, -32.5)" d="M 45.949 19.343 C 45.719 18.559 45.089999999999996 18.074 44.222 18.012999999999998 C 44.047000000000004 17.999999999999996 43.063 18.04 42.399 18.377999999999997 L 42.396 18.370999999999995 L 14.881 29.243 C 13.996 29.547 13.02 30.266 13 31.33 C 12.998 31.413999999999998 13.003 31.500999999999998 13.014 31.59 C 13.187 32.99 14.668 33.558 14.821 33.611 L 21.198 36.013 C 21.688 37.588 23.306 42.787 23.654 43.899 C 23.888 44.643 24.274 45.608000000000004 24.981 45.872 C 25.185 45.956 25.402 46 25.628 46 C 26.242 46 26.642 45.688 26.791 45.553 L 30.694 41.663 L 36.929 46.559999999999995 C 36.994 46.611999999999995 37.067 46.65599999999999 37.144000000000005 46.68899999999999 C 37.66100000000001 46.916999999999994 38.120000000000005 46.998999999999995 38.511 46.998999999999995 C 38.92 46.998999999999995 39.256 46.91 39.509 46.806 C 40.576 46.367999999999995 41.003 45.358999999999995 41.049 45.245 C 41.071 45.187999999999995 41.089 45.129 41.101 45.068999999999996 L 45.936 20.504999999999995 C 46.047 19.669 45.987 19.472 45.949 19.343 z M 23.195 35.701 L 33.067 29.754 L 26.292 36.807 C 26.172 36.931000000000004 26.104000000000003 37.086000000000006 26.063000000000002 37.249 C 26.060000000000002 37.261 25.057000000000002 41.679 25.057000000000002 41.679 L 23.195 35.701 z M 43.963 20.188 L 39.164 44.558 C 39.107 44.656 38.964 44.869 38.751000000000005 44.956 C 38.572 45.029 38.339000000000006 45.011 38.057 44.903000000000006 L 28.498000000000005 37.39600000000001 L 39.743 25.692000000000007 C 40.091 25.331000000000007 40.117000000000004 24.767000000000007 39.804 24.37600000000001 C 39.492000000000004 23.985000000000007 38.937000000000005 23.88500000000001 38.507000000000005 24.14400000000001 L 21.906000000000006 34.144000000000005 L 15.517000000000007 31.738000000000007 C 15.321000000000007 31.663000000000007 15.119000000000007 31.517000000000007 15.036000000000007 31.415000000000006 C 15.145000000000007 31.319000000000006 15.365000000000007 31.194000000000006 15.573000000000008 31.119000000000007 L 43.131 20.23 C 43.148 20.224 43.164 20.216 43.181 20.209 C 43.431999999999995 20.099 43.771 20.017 43.983999999999995 20.004 C 43.974 20.104 43.963 20.187 43.963 20.188 z" stroke-linecap="round" />
</g>
<g transform="matrix(1 0 0 1 0 0)" >
<linearGradient id="SVGID_EEzBmxT86u8E~6vCqQtLmc_3" gradientUnits="userSpaceOnUse" gradientTransform="matrix(1 0 0 1 0 0)" x1="32" y1="5.833" x2="32" y2="58.262">
<stop offset="0%" style="stop-color:rgb(26,109,255);stop-opacity: 1"/>
<stop offset="100%" style="stop-color:rgb(200,34,255);stop-opacity: 1"/>
</linearGradient>
<path style="stroke: none; stroke-width: 1; stroke-dasharray: none; stroke-linecap: butt; stroke-dashoffset: 0; stroke-linejoin: miter; stroke-miterlimit: 4; fill: url(#SVGID_EEzBmxT86u8E~6vCqQtLmc_3); fill-rule: nonzero; opacity: 1;" transform=" translate(-32, -32)" d="M 32 58 C 17.663 58 6 46.336 6 32 C 6 17.664 17.663 6 32 6 C 46.337 6 58 17.664 58 32 C 58 46.336 46.337 58 32 58 z M 32 8 C 18.767 8 8 18.767 8 32 C 8 45.233000000000004 18.767 56 32 56 C 45.233000000000004 56 56 45.233000000000004 56 32 C 56 18.766999999999996 45.233 8 32 8 z" stroke-linecap="round" />
</g>
</g>
</g>
</svg>