<svg id='YouTube_48' width='48' height='48' viewBox='0 0 48 48' xmlns='http://www.w3.org/2000/svg' xmlns:xlink='http://www.w3.org/1999/xlink'><rect width='48' height='48' stroke='none' fill='#000000' opacity='0'/>


<g transform="matrix(0.69 0 0 0.69 24 24)" >
<g style="" >
<g transform="matrix(1 0 0 1 8 -13)" >
<linearGradient id="SVGID_b3LYTKAFJ3Rh2ynOFM1Vea_17" gradientUnits="userSpaceOnUse" gradientTransform="matrix(1 0 0 1 0 0)" x1="40" y1="9.043" x2="40" y2="22.895">
<stop offset="0%" style="stop-color:rgb(26,109,255);stop-opacity: 1"/>
<stop offset="100%" style="stop-color:rgb(200,34,255);stop-opacity: 1"/>
</linearGradient>
<path style="stroke: none; stroke-width: 1; stroke-dasharray: none; stroke-linecap: butt; stroke-dashoffset: 0; stroke-linejoin: miter; stroke-miterlimit: 4; fill: url(#SVGID_b3LYTKAFJ3Rh2ynOFM1Vea_17); fill-rule: nonzero; opacity: 1;" transform=" translate(-40, -19)" d="M 42.5 14 L 41.5 14 C 41.224 14 41 14.224 41 14.5 L 41 22 L 39 22 L 39 14.5 C 39 14.224 38.776 14 38.5 14 L 37.5 14 C 37.224 14 37 14.224 37 14.5 L 37 22 C 37 23.105 37.895 24 39 24 L 41 24 C 42.105 24 43 23.105 43 22 L 43 14.5 C 43 14.224 42.776 14 42.5 14 z" stroke-linecap="round" />
</g>
<g transform="matrix(1 0 0 1 0 -13)" >
<linearGradient id="SVGID_b3LYTKAFJ3Rh2ynOFM1Veb_18" gradientUnits="userSpaceOnUse" gradientTransform="matrix(1 0 0 1 0 0)" x1="32" y1="9.043" x2="32" y2="22.895">
<stop offset="0%" style="stop-color:rgb(26,109,255);stop-opacity: 1"/>
<stop offset="100%" style="stop-color:rgb(200,34,255);stop-opacity: 1"/>
</linearGradient>
<path style="stroke: none; stroke-width: 1; stroke-dasharray: none; stroke-linecap: butt; stroke-dashoffset: 0; stroke-linejoin: miter; stroke-miterlimit: 4; fill: url(#SVGID_b3LYTKAFJ3Rh2ynOFM1Veb_18); fill-rule: nonzero; opacity: 1;" transform=" translate(-32, -19)" d="M 33 14 L 31 14 C 29.895 14 29 14.895 29 16 L 29 22 C 29 23.105 29.895 24 31 24 L 33 24 C 34.105 24 35 23.105 35 22 L 35 16 C 35 14.895 34.105 14 33 14 z M 33 21.5 C 33 21.776 32.776 22 32.5 22 L 31.5 22 C 31.224 22 31 21.776 31 21.5 L 31 16.5 C 31 16.224 31.224 16 31.5 16 L 32.5 16 C 32.776 16 33 16.224 33 16.5 L 33 21.5 z" stroke-linecap="round" />
</g>
<g transform="matrix(1 0 0 1 -9.5 -15.5)" >
<linearGradient id="SVGID_b3LYTKAFJ3Rh2ynOFM1Vec_19" gradientUnits="userSpaceOnUse" gradientTransform="matrix(1 0 0 1 0 0)" x1="22.5" y1="9.043" x2="22.5" y2="22.895">
<stop offset="0%" style="stop-color:rgb(26,109,255);stop-opacity: 1"/>
<stop offset="100%" style="stop-color:rgb(200,34,255);stop-opacity: 1"/>
</linearGradient>
<path style="stroke: none; stroke-width: 1; stroke-dasharray: none; stroke-linecap: butt; stroke-dashoffset: 0; stroke-linejoin: miter; stroke-miterlimit: 4; fill: url(#SVGID_b3LYTKAFJ3Rh2ynOFM1Vec_19); fill-rule: nonzero; opacity: 1;" transform=" translate(-22.5, -16.5)" d="M 26.5 9 L 25.5 9 C 25.224 9 25 9.224 25 9.5 L 25 16 L 20 16 L 20 9.5 C 20 9.224 19.776 9 19.5 9 L 18.5 9 C 18.224 9 18 9.224 18 9.5 L 18 16 C 18 17.105 18.895 18 20 18 L 25 18 L 25 22 L 18.5 22 C 18.224 22 18 22.224 18 22.5 L 18 23.5 C 18 23.776 18.224 24 18.5 24 L 25 24 C 26.105 24 27 23.105 27 22 L 27 9.5 C 27 9.224 26.776 9 26.5 9 z" stroke-linecap="round" />
</g>
<g transform="matrix(1 0 0 1 4.5 12.5)" >
<linearGradient id="SVGID_b3LYTKAFJ3Rh2ynOFM1Ved_20" gradientUnits="userSpaceOnUse" gradientTransform="matrix(1 0 0 1 0 0)" x1="36.5" y1="30.234" x2="36.5" y2="54.876">
<stop offset="0%" style="stop-color:rgb(109,199,255);stop-opacity: 1"/>
<stop offset="100%" style="stop-color:rgb(230,171,255);stop-opacity: 1"/>
</linearGradient>
<path style="stroke: none; stroke-width: 1; stroke-dasharray: none; stroke-linecap: butt; stroke-dashoffset: 0; stroke-linejoin: miter; stroke-miterlimit: 4; fill: url(#SVGID_b3LYTKAFJ3Rh2ynOFM1Ved_20); fill-rule: nonzero; opacity: 1;" transform=" translate(-36.5, -44.5)" d="M 37.5 41 L 35.5 41 C 35.224 41 35 41.224 35 41.5 L 35 42 L 35 44 L 35 47.5 C 35 47.776 35.224 48 35.5 48 L 37.5 48 C 37.776 48 38 47.776 38 47.5 L 38 41.5 C 38 41.224 37.776 41 37.5 41 z" stroke-linecap="round" />
</g>
<g transform="matrix(1 0 0 1 13 11)" >
<linearGradient id="SVGID_b3LYTKAFJ3Rh2ynOFM1Vee_21" gradientUnits="userSpaceOnUse" gradientTransform="matrix(1 0 0 1 -45 -43)" x1="45" y1="30.234" x2="45" y2="54.876">
<stop offset="0%" style="stop-color:rgb(109,199,255);stop-opacity: 1"/>
<stop offset="100%" style="stop-color:rgb(230,171,255);stop-opacity: 1"/>
</linearGradient>
<rect style="stroke: none; stroke-width: 1; stroke-dasharray: none; stroke-linecap: butt; stroke-dashoffset: 0; stroke-linejoin: miter; stroke-miterlimit: 4; fill: url(#SVGID_b3LYTKAFJ3Rh2ynOFM1Vee_21); fill-rule: nonzero; opacity: 1;" x="-1" y="-1" rx="0" ry="0" width="2" height="2" />
</g>
<g transform="matrix(1 0 0 1 0 11)" >
<linearGradient id="SVGID_b3LYTKAFJ3Rh2ynOFM1Vef_22" gradientUnits="userSpaceOnUse" gradientTransform="matrix(1 0 0 1 0 0)" x1="32" y1="30.234" x2="32" y2="54.876">
<stop offset="0%" style="stop-color:rgb(109,199,255);stop-opacity: 1"/>
<stop offset="100%" style="stop-color:rgb(230,171,255);stop-opacity: 1"/>
</linearGradient>
<path style="stroke: none; stroke-width: 1; stroke-dasharray: none; stroke-linecap: butt; stroke-dashoffset: 0; stroke-linejoin: miter; stroke-miterlimit: 4; fill: url(#SVGID_b3LYTKAFJ3Rh2ynOFM1Vef_22); fill-rule: nonzero; opacity: 1;" transform=" translate(-32, -43)" d="M 49 30 L 15 30 C 11.686 30 9 32.686 9 36 L 9 50 C 9 53.314 11.686 56 15 56 L 49 56 C 52.314 56 55 53.314 55 50 L 55 36 C 55 32.686 52.314 30 49 30 z M 22 49.5 C 22 49.776 21.776 50 21.5 50 L 20.5 50 C 20.224 50 20 49.776 20 49.5 L 20 37 L 16.5 37 C 16.224 37 16 36.776 16 36.5 L 16 35.5 C 16 35.224 16.224 35 16.5 35 L 25.5 35 C 25.776 35 26 35.224 26 35.5 L 26 36.5 C 26 36.776 25.776 37 25.5 37 L 22 37 L 22 49.5 z M 31 48 C 31 49.105 30.105 50 29 50 L 27 50 C 25.895 50 25 49.105 25 48 L 25 40.5 C 25 40.224 25.224 40 25.5 40 L 26.5 40 C 26.776 40 27 40.224 27 40.5 L 27 48 L 29 48 L 29 40.5 C 29 40.224 29.224 40 29.5 40 L 30.5 40 C 30.776 40 31 40.224 31 40.5 L 31 48 z M 40 48 C 40 49.105 39.105 50 38 50 L 35 50 C 33.895 50 33 49.105 33 48 L 33 35.5 C 33 35.224 33.224 35 33.5 35 L 34.5 35 C 34.776 35 35 35.224 35 35.5 L 35 37 L 35 39 L 38 39 C 39.105 39 40 39.895 40 41 L 40 48 z M 48 44 C 48 45.105 47.105 46 46 46 L 44 46 L 44 48 L 46 48 L 46 47.473 C 46 47.212 46.212 47 46.473 47 L 47.525999999999996 47 C 47.788 47 48 47.212 48 47.473 L 48 48 C 48 49.105 47.105 50 46 50 L 44 50 C 42.895 50 42 49.105 42 48 L 42 42 C 42 40.895 42.895 40 44 40 L 46 40 C 47.105 40 48 40.895 48 42 L 48 44 z" stroke-linecap="round" />
</g>
</g>
</g>
</svg>